<?xml version="1.0" encoding="UTF-8"?>
<svg width="225px" height="30px" viewBox="0 0 225 30" version="1.1" xmlns="http://www.w3.org/2000/svg" xmlns:xlink="http://www.w3.org/1999/xlink">
    <title>Academy-logo</title>
    <g id="Page-1" stroke="none" stroke-width="1" fill="none" fill-rule="evenodd">
        <g id="Academy-logo" fill="#FFFFFF">
            <g id="Group-4-Copy-3" transform="translate(43.000000, 7.000000)">
                <path d="M7.03343942,4.7563235 L4.62524558,12.6547076 L9.40920298,12.6547076 L7.03343942,4.7563235 Z M11.022855,17.4423162 L10.2865403,15.2200874 L3.74520576,15.2200874 L3.0032403,17.4423162 L0,17.4423162 L6.00893745,0 L8.02845931,0 L14.031746,17.4423162 L11.022855,17.4423162 Z" id="Fill-102"></path>
                <path d="M50.1777223,17.4423162 L52.9824171,17.4423162 L52.9824171,6.09720991 L50.1777223,6.09720991 L50.1777223,17.4423162 Z M51.5680166,0 C52.7177562,0 53.6507937,0.870480203 53.6507937,1.97427508 C53.6507937,3.0470415 52.7177562,3.91463534 51.5680166,3.91463534 C50.4393382,3.91463534 49.5238095,3.0470415 49.5238095,1.97427508 C49.5238095,0.870480203 50.4393382,0 51.5680166,0 L51.5680166,0 Z" id="Fill-103"></path>
                <polygon id="Fill-104" points="68.0218052 11.6379824 72.6349206 17.4423162 69.3948824 17.4423162 65.327936 12.3361185 65.327936 17.4423162 62.7301587 17.4423162 62.7301587 0 65.327936 0 65.327936 10.9630026 69.3948824 5.82330221 72.6349206 5.82330221"></polygon>
                <path d="M85.8412698,17.2995003 C85.3925476,17.3687371 84.5413145,17.4423162 83.698746,17.4423162 C82.2969157,17.4423162 79.680726,17.2698274 79.680726,13.4451598 L79.680726,8.14360209 L77.5873016,8.14360209 L77.5873016,5.92078845 L79.680726,5.92078845 L79.680726,2.49175946 L82.570245,2.49175946 L82.570245,5.92078845 L85.4172287,5.92078845 L85.4172287,8.14360209 L82.570245,8.14360209 L82.570245,12.8297487 C82.570245,14.8069769 83.2500237,15.0511149 84.3874519,15.0511149 C84.8361741,15.0511149 85.5492984,15.014446 85.8412698,14.9524465 L85.8412698,17.2995003 Z" id="Fill-105"></path>
                <path d="M101.254728,11.2151813 C101.254728,9.18004993 99.9013612,7.44096965 97.7759569,7.44096965 C95.7236538,7.44096965 94.3640714,9.18004993 94.3640714,11.2151813 C94.3640714,13.248552 95.7236538,14.9773196 97.7759569,14.9773196 C99.9013612,14.9773196 101.254728,13.248552 101.254728,11.2151813 M91.6190476,11.2151813 C91.6190476,7.8577553 94.0642074,4.98351892 97.7759569,4.98351892 C101.548873,4.98351892 104,7.8577553 104,11.2151813 C104,14.5665706 101.548873,17.4423162 97.7759569,17.4423162 C94.0642074,17.4423162 91.6190476,14.5665706 91.6190476,11.2151813" id="Fill-106"></path>
                <polygon id="Fill-107" points="27.2380952 5.8141054 22.5499979 5.8141054 20.6492905 5.8141054 19.8095238 5.8141054 19.8095238 17.4423162 22.5499979 17.4423162 22.5499979 8.37582734 27.2380952 8.37582734"></polygon>
                <polygon id="Fill-108" points="42.0952381 5.8141054 37.4023077 5.8141054 35.5147179 5.8141054 34.6666667 5.8141054 34.6666667 17.4423162 37.4023077 17.4423162 37.4023077 8.37582734 42.0952381 8.37582734"></polygon>
            </g>
            <path d="M225,8 L225,24 L153,24 L153,8 L225,8 Z M169.625892,11 C168.831057,11 168.119402,11.1409446 167.490928,11.4228338 C166.862453,11.7047231 166.328712,12.0813456 165.889704,12.5527013 C165.450697,13.0240571 165.115664,13.5647299 164.884608,14.1747197 C164.653551,14.7847095 164.538022,15.4224261 164.538022,16.0878695 C164.538022,16.7717975 164.655861,17.4233775 164.891539,18.0426096 C165.127217,18.6618417 165.469181,19.204825 165.917431,19.6715596 C166.365681,20.1382943 166.910975,20.5102956 167.553313,20.7875637 C168.195651,21.0648318 168.928101,21.2034659 169.750663,21.2034659 C170.416106,21.2034659 171.026096,21.106422 171.580632,20.9123344 C172.135168,20.7182467 172.620387,20.4525314 173.03629,20.1151886 C173.452192,19.7778457 173.791845,19.3827387 174.05525,18.9298675 C174.274754,18.5524748 174.434889,18.1526183 174.535655,17.7302979 L174.588991,17.47421 L172.204485,17.47421 C172.139789,17.714509 172.033503,17.938634 171.885627,18.1465851 C171.737751,18.3545362 171.559837,18.5347604 171.351886,18.6872579 C171.143935,18.8397554 170.915189,18.9599049 170.665647,19.0477064 C170.416106,19.135508 170.152701,19.1794088 169.875433,19.1794088 C169.385593,19.1794088 168.953517,19.0985389 168.579205,18.9367992 C168.204893,18.7750595 167.886035,18.553245 167.62263,18.2713558 C167.359225,17.9894665 167.160516,17.661366 167.026504,17.287054 C166.892491,16.9127421 166.825484,16.5130139 166.825484,16.0878695 C166.825484,15.6904519 166.89018,15.3068977 167.019572,14.9372069 C167.148964,14.5675161 167.33843,14.2417261 167.587971,13.9598369 C167.837513,13.6779477 168.144818,13.4515121 168.509888,13.2805301 C168.874958,13.1095481 169.29317,13.0240571 169.764526,13.0240571 C170.10649,13.0240571 170.418417,13.0748896 170.700306,13.1765545 C170.982195,13.2782195 171.227115,13.4191641 171.435066,13.5993884 C171.643017,13.7796126 171.813999,13.9898743 171.948012,14.2301733 C172.048522,14.4103976 172.126937,14.6036188 172.183257,14.8098369 L172.232212,15.0203874 L174.575127,15.0203874 C174.501189,14.4658512 174.344071,13.9436629 174.103772,13.4538226 C173.863473,12.9639823 173.537683,12.5388379 173.126402,12.1783894 C172.715121,11.8179409 172.216038,11.5314305 171.629154,11.3188583 C171.04227,11.1062861 170.374516,11 169.625892,11 Z M160.531498,11.2495413 L158.465851,11.2495413 L155,20.9539246 L157.398369,20.9539246 L157.772681,19.7755352 L161.224669,19.7755352 L161.598981,20.9539246 L164.03894,20.9539246 L160.531498,11.2495413 Z M180.605708,11.2495413 L178.540061,11.2495413 L175.07421,20.9539246 L177.472579,20.9539246 L177.846891,19.7755352 L181.298879,19.7755352 L181.673191,20.9539246 L184.11315,20.9539246 L180.605708,11.2495413 Z M188.660347,11.2495413 L185.097452,11.2495413 L185.097452,20.9539246 L188.660347,20.9539246 C189.464424,20.9539246 190.1807,20.8176011 190.809174,20.5449541 C191.437649,20.2723072 191.966769,19.9095481 192.396534,19.4566769 C192.8263,19.0038056 193.15209,18.4862385 193.373904,17.9039755 C193.595719,17.3217125 193.706626,16.720965 193.706626,16.1017329 C193.706626,15.4825008 193.593408,14.8817533 193.366972,14.2994903 C193.140537,13.7172273 192.812436,13.1996602 192.382671,12.746789 C191.952905,12.2939178 191.426096,11.9311587 190.802243,11.6585117 C190.256371,11.4199456 189.641507,11.2857522 188.957652,11.2559314 L188.660347,11.2495413 Z M200.998777,11.2495413 L195.079103,11.2495413 L195.079103,20.9539246 L200.998777,20.9539246 L200.998777,19.151682 L197.324975,19.151682 L197.324975,17.0167176 L200.998777,17.0167176 L200.998777,15.2560652 L197.324975,15.2560652 L197.324975,13.0517839 L200.998777,13.0517839 L200.998777,11.2495413 Z M205.365749,11.2495413 L202.773293,11.2495413 L202.773293,20.9539246 L204.96371,20.9539246 L204.96371,14.9372069 L207.126402,20.9539246 L208.79001,20.9539246 L210.883384,14.9372069 L210.883384,20.9539246 L213.073802,20.9539246 L213.073802,11.2495413 L210.522936,11.2495413 L207.958206,18.0010194 L205.365749,11.2495413 Z M216.678287,11.2495413 L214.058104,11.2495413 L217.496228,17.3078491 L215.707849,20.9539246 L218.189399,20.9539246 L223,11.2495413 L220.518451,11.2495413 L218.743935,15.0619776 L216.678287,11.2495413 Z M188.549439,13.1904179 C189.002311,13.1904179 189.40666,13.2712878 189.762487,13.4330275 C190.118315,13.5947672 190.418688,13.8119606 190.663609,14.0846075 C190.908529,14.3572545 191.095685,14.6691811 191.225076,15.0203874 C191.354468,15.3715936 191.419164,15.7320421 191.419164,16.1017329 C191.419164,16.480666 191.354468,16.8434251 191.225076,17.1900102 C191.095685,17.5365953 190.908529,17.8462113 190.663609,18.1188583 C190.418688,18.3915053 190.118315,18.6086986 189.762487,18.7704383 C189.40666,18.932178 189.002311,19.0130479 188.549439,19.0130479 L187.343323,19.0130479 L187.343323,13.1904179 L188.549439,13.1904179 Z M159.505607,14.0222222 L160.670133,18.0148828 L158.313354,18.0148828 L159.505607,14.0222222 Z M179.579817,14.0222222 L180.744343,18.0148828 L178.387564,18.0148828 L179.579817,14.0222222 Z" id="Combined-Shape"></path>
            <g id="Group-Copy">
                <rect id="Rectangle-Copy-9" x="4" y="16" width="5" height="16"></rect>
                <rect id="Rectangle-Copy-10" x="15" y="16" width="5" height="16"></rect>
                <rect id="Rectangle-Copy-11" x="26" y="16" width="5" height="16"></rect>
                <polygon id="Path-2-Copy-2" points="0 12 35 12 17.5 -1.34350864e-13"></polygon>
            </g>
        </g>
    </g>
</svg>