<?xml version="1.0" encoding="UTF-8"?>
<svg width="154px" height="154px" viewBox="0 0 154 154" version="1.1" xmlns="http://www.w3.org/2000/svg" xmlns:xlink="http://www.w3.org/1999/xlink">
    <title>Academy-banner</title>
    <g id="Page-1" stroke="none" stroke-width="1" fill="none" fill-rule="evenodd">
        <g id="2-with-icons" transform="translate(-91.000000, -684.000000)">
            <g id="Group-Copy" transform="translate(104.000000, 702.000000)">
                <line x1="81.8693783" y1="46.2495567" x2="126.871114" y2="62.8641673" id="Stroke-2" stroke="#000000" stroke-width="2.8323"></line>
                <line x1="55.6593479" y1="46.2495567" x2="10.657612" y2="62.8641673" id="Stroke-3" stroke="#000000" stroke-width="2.8323"></line>
                <polyline id="Stroke-4" stroke="#000000" stroke-width="2.8323" points="129 100.071516 129 116.674681 84.0455166 89.0920956"></polyline>
                <polyline id="Stroke-5" stroke="#000000" stroke-width="2.8323" points="0 100.071516 0 116.674681 44.9544834 89.0920956"></polyline>
                <path d="M90.8796876,24.1134291 C90.8796876,36.3681389 80.9530731,46.3023875 68.7077806,46.3023875 C56.4627891,46.3023875 46.5358736,36.3681389 46.5358736,24.1134291 C46.5358736,11.8587194 56.4627891,1.92447076 68.7077806,1.92447076 C80.9530731,1.92447076 90.8796876,11.8587194 90.8796876,24.1134291" id="Fill-6" fill="#FFFFFF"></path>
                <path d="M68.9497309,47.5059009 C55.8641283,47.5059009 45.2184949,36.8520804 45.2184949,23.7527998 C45.2184949,10.6571337 55.8641283,0 68.9497309,0 C82.0389451,0 92.6878892,10.6571337 92.6878892,23.7527998 C92.6878892,36.8520804 82.0389451,47.5059009 68.9497309,47.5059009 M68.9497309,3.11503241 C57.5817679,3.11503241 48.3314345,12.3724798 48.3314345,23.7527998 C48.3314345,35.1331199 57.5817679,44.3905673 68.9497309,44.3905673 C80.3249172,44.3905673 89.571639,35.1331199 89.571639,23.7527998 C89.571639,12.3724798 80.3249172,3.11503241 68.9497309,3.11503241" id="Fill-8" fill="#000000"></path>
                <polygon id="Fill-10" fill="#000000" points="58.606573 11.645408 58.606573 24.0693934 61.4528526 24.0693934 61.4528526 14.3809257 66.4432472 14.3809257 66.4432472 11.645408"></polygon>
                <polygon id="Fill-12" fill="#000000" points="71.3998428 11.7550456 71.3998428 24.179031 74.3129379 24.179031 74.3129379 14.4905633 79.3000218 14.4905633 79.3000218 11.7550456"></polygon>
                <polygon id="Fill-14" fill="#000000" points="67.3571747 38.2658027 76.1355861 29.4806402 74.0757429 27.4192129 67.2301651 34.2700553 63.7036918 30.7411711 61.7708582 32.67519"></polygon>
                <path d="M68.9497309,47.5059009 C55.8641283,47.5059009 45.2184949,36.8520804 45.2184949,23.7527998 C45.2184949,10.6571337 55.8641283,0 68.9497309,0 C82.0389451,0 92.6878892,10.6571337 92.6878892,23.7527998 C92.6878892,36.8520804 82.0389451,47.5059009 68.9497309,47.5059009 M68.9497309,3.11503241 C57.5817679,3.11503241 48.3314345,12.3724798 48.3314345,23.7527998 C48.3314345,35.1331199 57.5817679,44.3905673 68.9497309,44.3905673 C80.3249172,44.3905673 89.571639,35.1331199 89.571639,23.7527998 C89.571639,12.3724798 80.3249172,3.11503241 68.9497309,3.11503241" id="Fill-16" fill="#000000"></path>
                <polygon id="Fill-18" fill="#0049D7" points="113 91 72.3895547 117.726508 72.3895547 46.9879838 113 20.2614754"></polygon>
                <polygon id="Fill-20" fill="#007AFA" points="124.755682 95.1372524 72.4791838 118 72.4791838 47.2614754 124.755682 24.3987278"></polygon>
                <polygon id="Fill-22" fill="#0021AE" points="21.7240626 93.9523233 65.427411 118 65.427411 47.2614754 21.7240626 23.2137986"></polygon>
                <polygon id="Fill-24" fill="#0049D7" points="13.1508229 95.1372524 65.4273207 118 65.4273207 47.2614754 13.1508229 24.3987278"></polygon>
                <path d="M90.8430594,68.2980043 L91.472991,86.9201271 L102.801226,67.5248184 C103.156371,66.9160889 103.811885,66.6977174 104.265448,67.036871 C104.26906,67.0395818 104.272371,67.0422926 104.275982,67.0450034 L111.34187,72.4991716 L109.037639,60.8878295 L90.8430594,68.2980043 Z" id="Fill-26" fill="#FFFFFF"></path>
                <polygon id="Fill-28" fill="#FFFFFF" points="91.8645539 90.2844946 101.913362 88.4037885 95.7431628 83.6429877"></polygon>
                <polygon id="Fill-30" fill="#FFFFFF" points="103.788982 69.8709119 97.0303843 81.4400857 104.231408 86.9954577 111.062239 75.4826088"></polygon>
                <polygon id="Fill-32" fill="#FFFFFF" points="88.9475462 66.8448245 88.949051 66.8427161 94.8920178 56.8247333 85.3085099 64.1340053 82.9416766 76.9679268"></polygon>
                <polygon id="Fill-34" fill="#FFFFFF" points="83.0736522 80.7463569 89.4391818 89.0920655 88.8324249 71.0383111"></polygon>
                <polygon id="Fill-36" fill="#FFFFFF" points="107.188295 59.1048936 98.0240389 55.5467929 92.3206448 65.15996"></polygon>
                <polygon id="Fill-38" fill="#0021AE" points="65.4275314 117.99997 72.4792741 117.99997 72.4792741 47.2614452 65.4275314 47.2614452"></polygon>
                <line x1="13.2718733" y1="72.7065191" x2="8.87499288" y2="62.0656503" id="Stroke-40" stroke="#000000" stroke-width="2.8323"></line>
                <line x1="124.256853" y1="72.7065191" x2="128.653733" y2="62.0656503" id="Stroke-41" stroke="#000000" stroke-width="2.8323"></line>
            </g>
        </g>
    </g>
</svg>