<?xml version="1.0" encoding="UTF-8"?> <svg xmlns="http://www.w3.org/2000/svg" xmlns:xlink="http://www.w3.org/1999/xlink" id="Layer_1" data-name="Layer 1" viewBox="0 0 150 26.52"><defs><style>.cls-1{fill:none;clip-rule:evenodd;}.cls-2{clip-path:url(#clip-path);}.cls-3{clip-path:url(#clip-path-2);}.cls-4{clip-path:url(#clip-path-3);}.cls-5{fill:#fff;}</style><clipPath id="clip-path"><polygon class="cls-1" points="384.08 -3166.69 384.08 -3284.64 300.32 -3222.31 300.32 -2987.09 384.08 -3072.87 384.08 -3166.69"></polygon></clipPath><clipPath id="clip-path-2"><polygon class="cls-1" points="391.54 -1808.87 391.54 -1926.82 307.77 -1864.49 307.77 -1629.27 391.54 -1715.05 391.54 -1808.87"></polygon></clipPath><clipPath id="clip-path-3"><polygon class="cls-1" points="391.54 -751.92 391.54 -869.86 307.77 -807.54 307.77 -572.32 391.54 -658.1 391.54 -751.92"></polygon></clipPath></defs><path class="cls-5" d="M15.84,26.1l-1.07-3.18H5.39L4.32,26.1H0l8.63-25h2.9l8.62,25ZM10.09,7.94,6.64,19.24h6.88Z"></path><path class="cls-5" d="M74,.52A2.87,2.87,0,1,1,71.14,3.4,2.88,2.88,0,0,1,74,.52m-1.92,9H76V26.1H72.06Z"></path><polygon class="cls-5" points="97 17.78 103.93 26.1 99.07 26.1 92.97 18.78 92.97 26.1 89.08 26.1 89.08 1.12 92.97 1.12 92.97 16.82 99.07 9.47 103.93 9.47 97 17.78"></polygon><path class="cls-5" d="M123.23,26.1a19.53,19.53,0,0,1-2.88.21c-1.89,0-5.4-.25-5.4-5.85V12.72h-2.82V9.47H115v-5h3.9v5h3.81v3.25h-3.81v6.84c0,2.89.89,3.25,2.42,3.25a15,15,0,0,0,2-.14Z"></path><path class="cls-5" d="M132.44,17.78a8.78,8.78,0,0,1,17.56,0,8.78,8.78,0,0,1-17.56,0m13.68,0a5,5,0,0,0-4.94-5.28c-2.92,0-4.84,2.43-4.84,5.28s1.92,5.29,4.84,5.29a5,5,0,0,0,4.94-5.29"></path><polygon class="cls-5" points="30.01 9.46 30.01 26.1 33.91 26.1 33.91 13.12 40.58 13.12 40.58 9.46 30.01 9.46"></polygon><polygon class="cls-5" points="50.65 9.46 50.65 26.1 54.54 26.1 54.54 13.12 61.2 13.12 61.2 9.46 50.65 9.46"></polygon></svg> 