<?xml version="1.0" encoding="UTF-8"?>
<svg width="24px" height="24px" viewBox="0 0 24 24" version="1.1" xmlns="http://www.w3.org/2000/svg" xmlns:xlink="http://www.w3.org/1999/xlink">
    <title>Kale-24</title>
    <g id="Page-1" stroke="none" stroke-width="1" fill="none" fill-rule="evenodd">
        <g id="2-with-icons-copy" transform="translate(-336.000000, -605.000000)">
            <rect id="Rectangle" fill="#FFFFFF" x="240" y="435" width="960" height="673"></rect>
            <g id="Group-12" transform="translate(340.000000, 605.000000)" fill="#753BBD">
                <path d="M8.97461091,7.01384138 C10.2167244,5.34961427 12.1372015,4.22071665 14.3227809,4.03901212 C14.2990195,3.99940985 14.2729286,3.95980758 14.2445081,3.92020531 C14.0017695,3.58614852 13.6779627,3.39838718 13.4175196,3.24743265 C13.3248037,3.19385311 13.185031,3.11278493 13.1486901,3.07411448 C13.1034969,3.02286449 13.0396673,2.8742395 12.9888833,2.75450088 C12.8765992,2.49219408 12.7372924,2.16605775 12.4493606,1.89955777 C12.1325424,1.60650098 11.7518947,1.47651236 11.473747,1.38146691 C11.3791675,1.34931919 11.2356675,1.30039874 11.1942016,1.27291011 C11.1201221,1.21793284 11.0241448,1.08841012 10.9318948,0.963080591 C10.7595085,0.730591976 10.5456562,0.440796549 10.2004176,0.256762476 C9.87614491,0.0839102193 9.52438358,4.65909047e-05 9.12556544,4.65909047e-05 C9.08176999,4.65909047e-05 9.02958818,0.00843295375 8.97461091,0.021012498 L8.97461091,7.01384138 Z" id="Fill-8"></path>
                <path d="M7.49921673,0.0223636342 C7.44517128,0.00885227189 7.39345538,0 7.3482622,0 C6.94897815,0 6.59768272,0.0838636284 6.27341003,0.256715885 C5.92817142,0.440749958 5.71431917,0.730545385 5.54193282,0.963034 C5.44968283,1.08836353 5.35370557,1.21788625 5.27962603,1.27286352 C5.23816013,1.30035215 5.09466014,1.3492726 5.0000806,1.38142032 C4.7219329,1.47646577 4.34128521,1.60645439 4.02446706,1.89951118 C3.73653527,2.16601116 3.59722846,2.49214749 3.48494438,2.75445428 C3.4341603,2.87419291 3.37033076,3.0232838 3.32513758,3.07406789 C3.28879667,3.11273834 3.14902396,3.19380652 3.05630806,3.24738606 C2.7958649,3.39834059 2.47205812,3.58610193 2.2293195,3.92015872 C1.99496725,4.24303369 1.92368317,4.59479502 1.86637635,4.8771359 C1.84261499,4.99407907 1.81000136,5.15435178 1.77878545,5.20886314 C1.75176273,5.25498814 1.62876274,5.36447676 1.54769457,5.43715858 C1.32405822,5.63749947 1.04544461,5.88676081 0.88097872,6.26414713 C0.719308281,6.63501074 0.730024189,6.9988857 0.738410552,7.29101067 C0.741671915,7.40935157 0.746331006,7.5705561 0.729092371,7.63019246 C0.713717373,7.68097655 0.621467381,7.81562426 0.559967387,7.90461289 C0.388978767,8.15340832 0.176524242,8.46370374 0.111296975,8.87463552 C0.0474674356,9.27624912 0.15276288,9.62847636 0.237558327,9.91174906 C0.270637869,10.0221695 0.311171956,10.1568172 0.316296956,10.2281013 C0.302785593,10.270499 0.261785597,10.357624 0.233831054,10.4167945 C0.12853561,10.6390331 -0.0154302857,10.9428058 0.00134244001,11.3113398 C0.0185810747,11.7045671 0.198887876,12.0083398 0.330740136,12.2296466 C0.354501497,12.2697147 0.387115131,12.3251579 0.408081038,12.3642943 C0.39736513,12.4127488 0.375001496,12.4872943 0.359160588,12.5408738 C0.287876504,12.7784874 0.190967422,13.1041578 0.269240142,13.4712942 C0.353569679,13.8673169 0.590251475,14.1412714 0.763103732,14.3411464 C0.794319638,14.3774873 0.837649179,14.4273395 0.864671904,14.4622827 C0.864671904,14.512135 0.858149177,14.5927373 0.853490087,14.6500441 C0.832524179,14.901635 0.804103728,15.2464076 0.965774167,15.5963053 C1.14049006,15.9750894 1.44239912,16.1931348 1.66324001,16.3524757 C1.70330819,16.3808962 1.75828546,16.4209644 1.79276272,16.4489189 C1.80627409,16.4969075 1.82164909,16.5798393 1.8328309,16.638078 C1.87988772,16.8906007 1.94464907,17.2363052 2.20089905,17.5372824 C2.47718311,17.8610892 2.83360354,17.9924756 3.09404669,18.0879869 C3.1406376,18.1052256 3.20586486,18.1294528 3.24593304,18.1466915 C3.27388758,18.190021 3.31442167,18.2682937 3.34284212,18.3237369 C3.45931939,18.5506346 3.61866028,18.8618619 3.94479661,19.0794414 C4.30494431,19.3203164 5.07043287,19.3920663 5.11096696,19.3976573 C5.37746693,19.5705095 6.90331906,21.4290207 6.97367133,23.9999068 L7.49921673,23.9999068 L7.49921673,0.0223636342 Z" id="Fill-9"></path>
                <path d="M16.0658398,12.3642011 C16.0863398,12.3250647 16.1194193,12.2700875 16.1431807,12.2295534 C16.274567,12.0082466 16.4548738,11.7049398 16.4725784,11.3112467 C16.4888852,10.9427126 16.3453852,10.6389399 16.2400898,10.4167013 C16.2121352,10.3575308 16.1711352,10.2704058 16.1576239,10.2280081 C16.1627489,10.1571899 16.203283,10.0220763 16.2358966,9.91165588 C16.320692,9.62884909 16.4264534,9.27615594 16.3626238,8.87500825 C16.2973966,8.46361056 16.0844761,8.15378105 15.9134875,7.90451971 C15.8524534,7.81553108 15.7602034,7.68134927 15.7448284,7.63009928 C15.7271239,7.57046292 15.731783,7.40925839 15.7355103,7.2913834 C15.7438966,6.99879252 15.7546125,6.63491755 15.5929421,6.26405395 C15.4415217,5.91695171 15.194124,5.67840628 14.9807376,5.48645175 C14.968624,5.48738357 14.9560444,5.48831539 14.9439308,5.48831539 C11.7142493,5.48831539 9.07720408,8.06712196 8.97936318,11.2730421 C10.4232153,11.4458944 11.8060334,12.1168034 12.9353969,13.2088942 C13.8304082,14.0740873 14.5036467,15.1344963 14.9043285,16.2838939 C15.1107262,16.1306098 15.3567262,15.9237462 15.5081467,15.5962122 C15.6693512,15.2463145 15.6409307,14.9020077 15.6204307,14.6499509 C15.6157716,14.5926441 15.6092489,14.5120418 15.6092489,14.4621895 C15.6362716,14.4272464 15.6791353,14.3773941 15.7103512,14.3410532 C15.8836693,14.1411782 16.1203511,13.8672237 16.2046807,13.4716669 C16.2829534,13.1040647 16.1855784,12.7783942 16.1147602,12.5407806 C16.0984534,12.4872011 16.0765557,12.4126556 16.0658398,12.3642011" id="Fill-10"></path>
                <path d="M11.9100243,14.2694896 C11.0597403,13.447626 10.0384676,12.9262738 8.97479727,12.7599442 L8.97479727,24 L9.46446768,24 C9.53481995,21.4291139 11.0965471,19.5706027 11.3625811,19.3977504 C11.4031152,19.3921595 12.1686038,19.3204095 12.5292174,19.0795346 C12.8548878,18.8614891 13.0146946,18.5507278 13.1311719,18.3238301 C13.1595923,18.2683869 13.1996605,18.1896483 13.2276151,18.1467846 C13.2681491,18.1290801 13.3329105,18.1053187 13.3799673,18.0880801 C13.5015696,18.0433528 13.6446036,17.9902392 13.7908991,17.9138301 C13.5998764,16.5687507 12.915456,15.2413758 11.9100243,14.2694896" id="Fill-11"></path>
            </g>
        </g>
    </g>
</svg>