<?xml version="1.0" encoding="UTF-8"?>
<svg width="24px" height="24px" viewBox="0 0 24 24" version="1.1" xmlns="http://www.w3.org/2000/svg" xmlns:xlink="http://www.w3.org/1999/xlink">
    <title>Katib-24</title>
    <g id="Page-1" stroke="none" stroke-width="1" fill="none" fill-rule="evenodd">
        <g id="2-with-icons-copy" transform="translate(-336.000000, -764.000000)">
            <rect id="Rectangle" fill="#FFFFFF" x="240" y="435" width="960" height="673"></rect>
            <g id="Group-15-Copy" transform="translate(336.000000, 764.000000)">
                <polygon id="Fill-1" fill="#4279F4" points="12 0 2.3808 4.5357088 0 14.7987508 6.63 23 17.37 23 24 14.7987508 21.6192 4.5357088"></polygon>
                <g id="Group-14" transform="translate(3.350501, 5.886766)" fill="#FFFFFF">
                    <path d="M7.8288191,6.70618441 C8.4912191,6.70618441 9.0288191,7.23370194 9.0288191,7.8836789 C9.0288191,8.53365586 8.4912191,9.0611734 7.8288191,9.0611734 C7.1664191,9.0611734 6.6288191,8.53365586 6.6288191,7.8836789 C6.6288191,7.23370194 7.1664191,6.70618441 7.8288191,6.70618441" id="Fill-2"></path>
                    <polygon id="Fill-4" points="7.9512191 8.73029745 7.5972191 9.26723494 7.3860191 15.0416679 7.6368191 15.0499104 8.1240191 9.00229867"></polygon>
                    <path d="M11.5386191,1.21281933 C11.0706191,2.09947269 12.2898191,5.00081913 12.7566191,4.89131214 L16.7082191,3.66789536 C17.0718191,3.05206573 16.2822191,0.294373624 15.5166191,0 L11.5386191,1.21281933 Z M6.4206191,6.57983925 L6.6558191,6.94486254 L7.4706191,6.68699125 L7.4706191,7.19331388 C7.6938191,7.09558184 7.9242191,7.04377208 8.1846191,7.19331388 L8.1846191,6.47033226 L8.6442191,6.32785542 L8.6442191,5.88982747 L6.4206191,6.57983925 Z M8.1390191,8.57569242 L12.1122191,14.8505606 L12.2826191,14.7375211 L8.5926191,8.09998464 C8.5110191,8.3861158 8.3274191,8.48502534 8.1390191,8.57569242 L8.1390191,8.57569242 Z M7.1346191,8.22950904 L3.2502191,15.1037219 L3.4818191,15.2438438 L7.7418191,8.6439871 C7.4466191,8.56744996 7.2426191,8.4296831 7.1346191,8.22950904 L7.1346191,8.22950904 Z" id="Fill-6"></path>
                    <path d="M0.576499101,5.0814775 L0.766099101,5.6584498 L0.560899101,5.72674448 C0.366499101,6.18361235 0.943699101,7.43999898 1.1272991,7.36228434 L3.7636991,6.56158808 C3.6688991,6.30724927 3.3016991,5.56189525 3.2836991,4.88130344 L1.4272991,5.45827574 L1.2220991,4.8459786 C0.880099101,4.79181385 0.629299101,4.94371064 0.576499101,5.0814775 Z M3.4876991,4.37851329 C3.2056991,5.22277684 4.1020991,7.10441304 4.3444991,6.99961603 L12.1996991,4.59634977 C11.9164991,4.02290995 11.5096991,3.54955716 11.2876991,1.95993959 L3.4876991,4.37851329 Z" id="Fill-8"></path>
                    <path d="M0.275899101,5.80493012 C0.119899101,6.42546972 0.706699101,7.52289459 0.821899101,7.47343982 L0.950299101,7.42634004 C0.871099101,7.36746532 0.320299101,6.68451851 0.394699101,5.77667025 L0.275899101,5.80493012 Z" id="Fill-10"></path>
                </g>
            </g>
            <text id="24px-copy" font-family="GTWalsheimRegular, GT Walsheim" font-size="20" font-weight="normal" letter-spacing="0.357142857" fill="#FF1111">
                <tspan x="332" y="759">24px</tspan>
            </text>
        </g>
    </g>
</svg>